<?xml version="1.0" encoding="utf-8"?>
<!-- Generator: Adobe Illustrator 25.2.0, SVG Export Plug-In . SVG Version: 6.00 Build 0)  -->
<svg version="1.1" id="Layer_1" xmlns="http://www.w3.org/2000/svg" xmlns:xlink="http://www.w3.org/1999/xlink" x="0px" y="0px"
	 viewBox="0 0 586 350" style="enable-background:new 0 0 586 350;" xml:space="preserve">
<style type="text/css">
	.st0{fill:#F5F4F5;}
	.st1{fill:#DDDDDD;}
	.st2{fill:#FFFFFF;}
	.st3{fill:#FCF8E6;}
	.st4{fill:#6174B7;}
	.st5{fill:#A1616A;}
	.st6{fill:#444C58;}
</style>
<g>
	<path class="st0" d="M5,0h576c2.76,0,5,2.24,5,5v340c0,2.76-2.24,5-5,5H5c-2.76,0-5-2.24-5-5V5C0,2.24,2.24,0,5,0z"/>
	<path class="st1" d="M431.02,192.76c-0.37,0.71-0.76,1.41-1.16,2.1c-15.36,26.55-51.08,43.04-111.32,34.31
		c-34.21-5.19-48.77,13.85-62.88,33.35c-0.24,0.34-0.48,0.67-0.73,1.01c-14.77,20.45-29.4,40.96-65.96,34.14
		c-38.77-6.08-62.69-37.32-66.4-70.67c-0.04-0.41-0.08-0.81-0.12-1.22c-2.08-21.62,4.35-44.01,20.75-60.91
		c9.9-10.21,23.98-15.63,38.5-15.46c4.37,0.08,8.75-0.24,13.06-0.96c0.95-0.17,1.88-0.35,2.77-0.56
		c18.51-4.2,27.04-16.68,32.27-31.9c0.12-0.36,0.24-0.72,0.36-1.09c12.01-36.31,6.46-87.28,71.75-79.78
		c58.42,4.27,101.3,36.42,122.33,73.52c0.21,0.37,0.42,0.75,0.62,1.12c5.78,10.29,9.91,21.42,12.23,32.97
		c0.13,0.65,0.25,1.3,0.36,1.95C440.43,161.9,438.48,178.64,431.02,192.76z"/>
	<path class="st2" d="M424.87,109.75c-4.19,4.94-8.92,9.42-14.08,13.35c-20.14,15.33-45.65,23.64-70.82,25.39
		c-12.93,0.9-25.93,0.03-38.62-2.6c-12.91-2.68-25.23-7.41-37.16-12.94c-11.6-5.37-22.86-11.43-34.38-16.95
		c0.12-0.36,0.24-0.72,0.36-1.09c12.57,6,24.87,12.62,37.58,18.33c11.98,5.39,24.38,9.79,37.34,12.14
		c12.94,2.33,26.14,2.84,39.22,1.52c25.1-2.51,50.63-11.69,69.92-28.13c3.62-3.09,6.97-6.48,10.01-10.13
		C424.45,109,424.66,109.38,424.87,109.75z"/>
	<path class="st3" d="M337.67,26.38c-0.03,0-0.06,0-0.09,0c-30.97,1.93-55.23,27.58-55.23,58.4c0,30.82,24.26,56.48,55.23,58.4
		c0.19,0.01,0.37-0.01,0.55-0.08c0.17-0.06,0.33-0.16,0.47-0.29c0.13-0.12,0.24-0.27,0.31-0.44c0.07-0.17,0.11-0.35,0.11-0.53V27.72
		c0-0.35-0.14-0.69-0.4-0.95C338.37,26.52,338.02,26.38,337.67,26.38L337.67,26.38z"/>
	<path class="st3" d="M385.02,123.79c-0.46,0-0.9-0.18-1.23-0.5l-40.05-39.74c-0.16-0.16-0.29-0.35-0.38-0.56
		c-0.09-0.21-0.13-0.43-0.13-0.66V27.72c0-0.23,0.05-0.47,0.14-0.68c0.09-0.22,0.23-0.41,0.4-0.57c0.17-0.16,0.38-0.29,0.6-0.37
		c0.22-0.08,0.46-0.11,0.7-0.1c31.17,1.94,55.59,27.76,55.59,58.78c0,14.09-5.09,27.72-14.35,38.4c-0.16,0.18-0.35,0.32-0.56,0.43
		c-0.21,0.1-0.45,0.16-0.69,0.17C385.06,123.79,385.04,123.79,385.02,123.79z"/>
	<path class="st4" d="M344.98,143.58c-0.44,0-0.87-0.17-1.19-0.47c-0.17-0.16-0.31-0.35-0.4-0.57c-0.09-0.21-0.14-0.45-0.14-0.68
		V92.58c0-0.34,0.1-0.67,0.29-0.95c0.19-0.28,0.46-0.5,0.78-0.63c0.32-0.13,0.66-0.16,1-0.1c0.33,0.07,0.64,0.23,0.88,0.47
		l34.94,34.68c0.17,0.17,0.3,0.36,0.38,0.58c0.09,0.22,0.13,0.45,0.12,0.68c-0.01,0.23-0.06,0.46-0.16,0.67
		c-0.1,0.21-0.24,0.4-0.41,0.56c-9.95,8.89-22.63,14.19-35.99,15.04C345.05,143.57,345.01,143.58,344.98,143.58z"/>
	<path class="st2" d="M437.45,144.67c-5.61,9.87-13.52,18.57-22.58,25.47c-20.14,15.33-45.65,23.64-70.82,25.38
		c-12.93,0.9-25.93,0.03-38.62-2.6c-12.91-2.68-25.23-7.41-37.16-12.94c-12.14-5.62-23.92-12-36.01-17.73
		c-12.08-5.73-24.49-10.61-37.5-13.8c0.95-0.17,1.88-0.35,2.77-0.56c0.85,0.22,1.7,0.45,2.54,0.68
		c25.43,7.06,47.88,20.96,71.76,31.7c11.98,5.39,24.38,9.79,37.34,12.14c12.94,2.33,26.14,2.84,39.22,1.53
		c25.1-2.51,50.63-11.7,69.92-28.14c7.64-6.48,14-14.3,18.77-23.08C437.22,143.37,437.34,144.02,437.45,144.67z"/>
	<path class="st2" d="M184.96,231.29c25.06,6.95,47.21,20.55,70.7,31.22c-0.24,0.34-0.48,0.67-0.73,1.01
		c-0.6-0.27-1.19-0.54-1.78-0.82c-12.15-5.62-23.92-12-36.01-17.73c-12.34-5.85-25.02-10.82-38.33-14.01
		c-18.4-4.4-37.4-5.74-56.24-3.97c-0.04-0.4-0.08-0.81-0.12-1.22C143.45,223.81,164.64,225.68,184.96,231.29z"/>
	<path class="st3" d="M285.67,270.42h-178.2c-0.12,0-0.24-0.05-0.33-0.14c-0.09-0.09-0.14-0.21-0.14-0.33
		c0-0.12,0.05-0.24,0.14-0.33s0.21-0.14,0.33-0.14h178.2c0.12,0,0.24,0.05,0.33,0.14c0.09,0.09,0.14,0.2,0.14,0.33
		c0,0.12-0.05,0.24-0.14,0.33C285.91,270.37,285.79,270.42,285.67,270.42z"/>
	<path class="st5" d="M179.55,207.81c6.34,0,11.49-5.1,11.49-11.4c0-6.3-5.14-11.4-11.49-11.4c-6.34,0-11.49,5.1-11.49,11.4
		C168.06,202.7,173.21,207.81,179.55,207.81z"/>
	<path class="st5" d="M222.54,276.85l0.27,5.68l-21.97,3.73l-0.4-8.39L222.54,276.85z"/>
	<path class="st6" d="M228.02,275.14l0.61,12.92l-0.23,0.01c-1.81,0.12-3.6-0.31-5.15-1.24c-1.4-0.89-2.21-2.11-2.27-3.46l0,0
		l-0.37-7.89L228.02,275.14z"/>
	<path class="st5" d="M221.92,286.2l5.74,0l2.73-21.95l-8.46,0L221.92,286.2z"/>
	<path class="st6" d="M220.46,284.34h11.29h0c0.94,0,1.88,0.18,2.75,0.54c0.87,0.36,1.67,0.88,2.33,1.55
		c0.67,0.66,1.2,1.45,1.56,2.32c0.36,0.87,0.55,1.8,0.55,2.73v0.23l-18.49,0V284.34z"/>
	<path class="st5" d="M167.79,280.88c0.63-0.38,1.17-0.89,1.57-1.49c0.41-0.61,0.68-1.29,0.79-2.01c0.11-0.72,0.06-1.46-0.14-2.16
		c-0.21-0.7-0.57-1.35-1.05-1.89l4.58-45.19l-10.9,0.76l-1.07,44.18c-0.87,0.87-1.39,2.03-1.46,3.25c-0.07,1.23,0.32,2.43,1.08,3.4
		c0.77,0.96,1.86,1.61,3.08,1.83C165.48,281.76,166.73,281.52,167.79,280.88L167.79,280.88z"/>
	<path class="st4" d="M173.48,235.97l-11.29-1.37c-0.32-0.04-0.63-0.15-0.91-0.31c-0.28-0.17-0.51-0.39-0.69-0.66
		c-0.18-0.27-0.3-0.57-0.35-0.89s-0.04-0.64,0.05-0.95l3.01-10.86c0.21-1.63,1.06-3.11,2.37-4.12c1.31-1.01,2.97-1.46,4.61-1.26
		c1.64,0.2,3.14,1.05,4.16,2.34s1.48,2.94,1.28,4.57L176,233.7c0.01,0.32-0.05,0.64-0.18,0.93c-0.13,0.3-0.32,0.56-0.56,0.78
		c-0.24,0.22-0.52,0.38-0.83,0.48C174.13,235.98,173.8,236.01,173.48,235.97z"/>
	<path class="st6" d="M171.9,287.28c-1.37-0.09-2.69-0.54-3.83-1.3c-1.14-0.76-2.05-1.81-2.65-3.03c-0.6-1.23-0.86-2.58-0.76-3.94
		c0.1-1.36,0.56-2.67,1.33-3.79l7.38-7.6l26.89-23.9l14.38-11.84c0.84-0.69,1.84-1.16,2.91-1.36c1.07-0.2,2.18-0.13,3.21,0.21
		c1.04,0.34,1.97,0.93,2.71,1.72c0.74,0.79,1.27,1.76,1.53,2.81l7.51,30.15c0.13,0.5,0.06,1.03-0.19,1.49s-0.65,0.8-1.15,0.98
		l-8.19,2.92c-0.27,0.1-0.57,0.14-0.86,0.12c-0.29-0.02-0.57-0.1-0.83-0.23c-0.26-0.13-0.49-0.32-0.67-0.55
		c-0.18-0.23-0.32-0.49-0.39-0.77l-3.12-11.59l-17.33,16.44l5.41,1.98c0.5,0.18,0.9,0.54,1.15,1.01c0.24,0.47,0.29,1.01,0.15,1.51
		l-1.75,6.15c-0.12,0.43-0.38,0.81-0.73,1.08c-0.35,0.27-0.79,0.43-1.23,0.44L171.9,287.28z"/>
	<path class="st4" d="M171.16,270.14l-0.71-25.79l-4.49-11.31c-0.92-2.31-1.31-4.79-1.16-7.26c0.15-2.48,0.84-4.89,2.03-7.07
		c1.19-2.18,2.84-4.08,4.85-5.56c2.01-1.48,4.31-2.51,6.76-3.01c0.37-0.08,0.74-0.15,1.1-0.22c2.35-0.46,4.77-0.43,7.1,0.09
		c2.34,0.52,4.53,1.52,6.46,2.94c1.92,1.41,3.52,3.21,4.7,5.28c1.18,2.07,1.91,4.36,2.14,6.72l2.11,19.41l-0.01,0.04
		c-3.36,14.84-13.09,23.01-30.62,25.71L171.16,270.14z"/>
	<path class="st5" d="M181.78,252.23c0.26-0.04,0.52-0.06,0.77-0.06l12.98-19.07l-2.46-5.03l7.17-4.68l5.22,8.49
		c0.42,0.69,0.61,1.49,0.53,2.29c-0.08,0.8-0.41,1.55-0.96,2.15l-17.77,19.36c0.28,0.95,0.26,1.96-0.05,2.9
		c-0.32,0.94-0.91,1.76-1.71,2.36c-0.8,0.6-1.76,0.93-2.75,0.98c-1,0.04-1.98-0.22-2.82-0.75c-0.84-0.53-1.5-1.3-1.89-2.21
		c-0.39-0.91-0.49-1.92-0.29-2.89c0.2-0.97,0.69-1.86,1.41-2.54S180.79,252.39,181.78,252.23z"/>
	<path class="st4" d="M194.4,232.75c-0.29-0.08-0.56-0.22-0.79-0.42s-0.42-0.43-0.55-0.71l-4.49-9.49
		c-0.86-1.28-1.17-2.84-0.86-4.35c0.3-1.51,1.2-2.83,2.48-3.68c1.29-0.85,2.86-1.17,4.38-0.87c1.52,0.3,2.85,1.18,3.72,2.45
		l7.09,7.81c0.2,0.22,0.35,0.49,0.44,0.77c0.09,0.29,0.12,0.59,0.08,0.89c-0.04,0.3-0.14,0.58-0.3,0.84
		c-0.16,0.26-0.37,0.47-0.62,0.64l-8.85,5.84c-0.25,0.17-0.54,0.28-0.84,0.32C194.99,232.85,194.69,232.83,194.4,232.75z"/>
	<path class="st3" d="M331.92,205.25H294c-0.55,0-1.07-0.22-1.46-0.6c-0.39-0.38-0.6-0.9-0.6-1.45c0-0.54,0.22-1.06,0.6-1.45
		c0.39-0.38,0.91-0.6,1.46-0.6h37.92c0.55,0,1.07,0.21,1.46,0.6c0.39,0.38,0.6,0.9,0.6,1.45c0,0.54-0.22,1.06-0.6,1.45
		C332.99,205.03,332.46,205.25,331.92,205.25z"/>
	<path class="st6" d="M282.67,207.29c-0.86,0-1.69-0.25-2.4-0.72c-0.71-0.47-1.27-1.14-1.59-1.93c-0.33-0.79-0.41-1.65-0.25-2.48
		c0.17-0.83,0.58-1.6,1.18-2.2c0.6-0.6,1.38-1.01,2.22-1.18c0.84-0.17,1.71-0.08,2.5,0.24c0.79,0.33,1.47,0.88,1.94,1.58
		c0.48,0.71,0.73,1.54,0.73,2.39c0,1.14-0.46,2.23-1.27,3.04C284.91,206.84,283.81,207.29,282.67,207.29z"/>
	<path class="st3" d="M331.92,217.52H294c-0.55,0-1.07-0.21-1.46-0.6c-0.39-0.38-0.6-0.9-0.6-1.45c0-0.54,0.22-1.06,0.6-1.45
		c0.39-0.38,0.91-0.6,1.46-0.6h37.92c0.55,0,1.07,0.21,1.46,0.6c0.39,0.38,0.6,0.9,0.6,1.45c0,0.54-0.22,1.06-0.6,1.45
		C332.99,217.3,332.46,217.52,331.92,217.52z"/>
	<path class="st6" d="M282.67,219.56c-0.86,0-1.69-0.25-2.4-0.72c-0.71-0.47-1.27-1.14-1.59-1.93c-0.33-0.78-0.41-1.65-0.25-2.48
		c0.17-0.83,0.58-1.6,1.18-2.2c0.6-0.6,1.38-1.01,2.22-1.18c0.84-0.17,1.71-0.08,2.5,0.24c0.79,0.32,1.47,0.88,1.94,1.58
		c0.48,0.71,0.73,1.54,0.73,2.39c0,1.14-0.46,2.23-1.27,3.03C284.91,219.11,283.81,219.56,282.67,219.56z"/>
	<path class="st3" d="M331.92,229.79H294c-0.55,0-1.07-0.21-1.46-0.6c-0.39-0.38-0.6-0.9-0.6-1.45c0-0.54,0.22-1.06,0.6-1.45
		c0.39-0.38,0.91-0.6,1.46-0.6h37.92c0.55,0,1.07,0.22,1.46,0.6c0.39,0.38,0.6,0.9,0.6,1.45c0,0.54-0.22,1.06-0.6,1.45
		C332.99,229.57,332.46,229.79,331.92,229.79z"/>
	<path class="st6" d="M282.67,231.83c-0.86,0-1.69-0.25-2.4-0.72c-0.71-0.47-1.27-1.14-1.59-1.93c-0.33-0.79-0.41-1.65-0.25-2.48
		c0.17-0.83,0.58-1.6,1.18-2.2c0.6-0.6,1.38-1.01,2.22-1.18c0.84-0.17,1.71-0.08,2.5,0.24c0.79,0.32,1.47,0.88,1.94,1.58
		c0.48,0.71,0.73,1.54,0.73,2.39c0,1.14-0.46,2.23-1.27,3.04C284.91,231.38,283.81,231.83,282.67,231.83z"/>
	<path class="st6" d="M342.81,215.42h15.66c0.11,0,0.21-0.04,0.29-0.12c0.08-0.08,0.12-0.18,0.12-0.29v-96.08
		c0-0.11-0.04-0.21-0.12-0.29c-0.08-0.08-0.18-0.12-0.29-0.12c-0.11,0-0.21,0.04-0.29,0.12c-0.08,0.08-0.12,0.18-0.12,0.29v95.67
		h-15.25c-0.05,0-0.11,0.01-0.16,0.03c-0.05,0.02-0.1,0.05-0.13,0.09c-0.04,0.04-0.07,0.08-0.09,0.13c-0.02,0.05-0.03,0.1-0.03,0.16
		s0.01,0.11,0.03,0.16c0.02,0.05,0.05,0.09,0.09,0.13c0.04,0.04,0.08,0.07,0.13,0.09C342.7,215.41,342.76,215.42,342.81,215.42z"/>
	<path class="st3" d="M409.92,56.13c-1.05,0.08-2.1-0.14-3.01-0.65c-0.92-0.51-1.66-1.27-2.14-2.2c-0.48-0.93-0.67-1.98-0.55-3.01
		c0.12-1.04,0.55-2.01,1.23-2.81c0.68-0.79,1.58-1.37,2.59-1.65c1.01-0.28,2.08-0.27,3.08,0.05c1,0.32,1.88,0.93,2.53,1.75
		c0.65,0.82,1.04,1.81,1.13,2.85c0.11,1.39-0.34,2.77-1.25,3.84C412.63,55.35,411.33,56.01,409.92,56.13z M409.86,55.32
		c0.89-0.07,1.73-0.4,2.43-0.95c0.7-0.55,1.21-1.29,1.49-2.13c0.27-0.84,0.29-1.74,0.05-2.59c-0.24-0.85-0.73-1.61-1.41-2.18
		s-1.51-0.93-2.39-1.03c-0.88-0.1-1.78,0.06-2.57,0.46c-0.79,0.4-1.45,1.03-1.88,1.8c-0.43,0.77-0.63,1.65-0.55,2.53
		c0.05,0.58,0.21,1.15,0.48,1.67c0.27,0.52,0.64,0.99,1.09,1.36c0.45,0.38,0.97,0.67,1.53,0.85
		C408.68,55.3,409.27,55.36,409.86,55.32L409.86,55.32z"/>
	<path class="st3" d="M428.21,42.6c1.8,0,3.27-1.45,3.27-3.24c0-1.79-1.46-3.24-3.27-3.24c-1.81,0-3.27,1.45-3.27,3.24
		C424.95,41.15,426.41,42.6,428.21,42.6z"/>
	<path class="st3" d="M444.28,30.87c0.95,0,1.72-0.76,1.72-1.7c0-0.94-0.77-1.7-1.72-1.7c-0.95,0-1.72,0.76-1.72,1.7
		C442.57,30.1,443.33,30.87,444.28,30.87z"/>
	<path class="st3" d="M384.96,159.89c-0.58,0.87-1.41,1.55-2.37,1.95c-0.97,0.4-2.04,0.51-3.07,0.32c-1.03-0.2-1.98-0.7-2.73-1.43
		c-0.75-0.73-1.26-1.67-1.47-2.69c-0.21-1.02-0.11-2.08,0.29-3.05c0.4-0.97,1.07-1.79,1.95-2.38c0.87-0.58,1.9-0.9,2.95-0.9
		c1.05-0.01,2.08,0.3,2.96,0.87c1.17,0.77,1.99,1.97,2.27,3.34C386.01,157.3,385.74,158.72,384.96,159.89z M376.78,154.52
		c-0.49,0.74-0.75,1.6-0.74,2.48c0,0.88,0.27,1.74,0.77,2.47c0.5,0.73,1.2,1.3,2.03,1.63c0.82,0.33,1.73,0.42,2.6,0.24
		c0.87-0.18,1.67-0.61,2.3-1.23c0.63-0.63,1.05-1.42,1.22-2.29s0.08-1.76-0.27-2.58c-0.35-0.81-0.93-1.51-1.67-1.99
		c-0.99-0.65-2.21-0.88-3.38-0.65C378.46,152.85,377.44,153.54,376.78,154.52z"/>
	<path class="st3" d="M391.33,179.28c1.81,0,3.27-1.45,3.27-3.24c0-1.79-1.46-3.24-3.27-3.24c-1.81,0-3.27,1.45-3.27,3.24
		C388.06,177.82,389.52,179.28,391.33,179.28z"/>
	<path class="st3" d="M400.44,194.36c0.95,0,1.72-0.76,1.72-1.7c0-0.94-0.77-1.71-1.72-1.71c-0.95,0-1.72,0.76-1.72,1.71
		C398.73,193.6,399.5,194.36,400.44,194.36z"/>
	<path class="st3" d="M253.06,71.35c-0.47-0.93-0.65-1.98-0.51-3.02c0.13-1.03,0.57-2.01,1.26-2.79c0.69-0.79,1.6-1.35,2.61-1.62
		c1.01-0.27,2.09-0.24,3.08,0.09c1,0.33,1.87,0.95,2.51,1.78c0.64,0.83,1.02,1.82,1.1,2.86c0.07,1.04-0.17,2.08-0.69,2.98
		c-0.52,0.9-1.3,1.63-2.24,2.1c-1.26,0.62-2.72,0.72-4.06,0.27C254.79,73.55,253.69,72.6,253.06,71.35z M261.84,67.02
		c-0.39-0.79-1.02-1.45-1.79-1.88c-0.77-0.44-1.66-0.64-2.54-0.58c-0.89,0.06-1.74,0.38-2.44,0.92c-0.7,0.54-1.23,1.27-1.51,2.11
		c-0.28,0.84-0.31,1.74-0.08,2.59c0.23,0.85,0.71,1.62,1.38,2.19c0.67,0.58,1.5,0.95,2.38,1.06c0.88,0.11,1.78-0.04,2.57-0.43
		c1.07-0.53,1.88-1.45,2.26-2.57C262.45,69.3,262.37,68.08,261.84,67.02z"/>
	<path class="st3" d="M235.79,71.96c1.81,0,3.27-1.45,3.27-3.24c0-1.79-1.46-3.24-3.27-3.24c-1.8,0-3.27,1.45-3.27,3.24
		C232.52,70.5,233.99,71.96,235.79,71.96z"/>
	<path class="st3" d="M216.73,69.9c0.95,0,1.72-0.76,1.72-1.7c0-0.94-0.77-1.7-1.72-1.7c-0.95,0-1.72,0.76-1.72,1.7
		C215.01,69.14,215.78,69.9,216.73,69.9z"/>
	<path class="st6" d="M191.69,197.4l-0.48-1.21c-1.32-3.34-4.48-5.91-7.86-6.39c-1.69-0.22-3.4,0.04-4.94,0.75
		c-1.54,0.71-2.85,1.84-3.77,3.26c-0.78,1.35-1.4,2.78-1.84,4.27c-0.15,0.44-0.3,0.76-0.59,0.86c-0.33,0.12-0.66-0.08-1.2-0.42
		c-0.12-0.07-0.26-0.11-0.4-0.11c-0.14,0-0.28,0.04-0.4,0.12c-0.12,0.08-0.21,0.19-0.27,0.31c-0.06,0.13-0.08,0.27-0.06,0.41
		l0.57,4.02l-0.48-0.42c-3.09-2.73-3.73-7.87-1.49-11.13l-5.08,1.04l0.23-0.43c2.11-4.05,5.75-7.1,10.12-8.48l-4.87-1.07l0.49-0.3
		c4.36-2.67,10.12-2.59,14.66,0.19c2.28,1.45,4.17,3.43,5.5,5.77c1.33,2.34,2.07,4.97,2.15,7.66L191.69,197.4z"/>
	<path class="st0" d="M5,0h576c2.76,0,5,2.24,5,5v340c0,2.76-2.24,5-5,5H5c-2.76,0-5-2.24-5-5V5C0,2.24,2.24,0,5,0z"/>
	<path class="st1" d="M431.02,192.76c-0.37,0.71-0.76,1.41-1.16,2.1c-15.36,26.55-51.08,43.04-111.32,34.31
		c-34.21-5.19-48.77,13.85-62.88,33.35c-0.24,0.34-0.48,0.67-0.73,1.01c-14.77,20.45-29.4,40.96-65.96,34.14
		c-38.77-6.08-62.69-37.32-66.4-70.67c-0.04-0.41-0.08-0.81-0.12-1.22c-2.08-21.62,4.35-44.01,20.75-60.91
		c9.9-10.21,23.98-15.63,38.5-15.46c4.37,0.08,8.75-0.24,13.06-0.96c0.95-0.17,1.88-0.35,2.77-0.56
		c18.51-4.2,27.04-16.68,32.27-31.9c0.12-0.36,0.24-0.72,0.36-1.09c12.01-36.31,6.46-87.28,71.75-79.78
		c58.42,4.27,101.3,36.42,122.33,73.52c0.21,0.37,0.42,0.75,0.62,1.12c5.78,10.29,9.91,21.42,12.23,32.97
		c0.13,0.65,0.25,1.3,0.36,1.95C440.43,161.9,438.48,178.64,431.02,192.76z"/>
	<path class="st2" d="M424.87,109.75c-4.19,4.94-8.92,9.42-14.08,13.35c-20.14,15.33-45.65,23.64-70.82,25.39
		c-12.93,0.9-25.93,0.03-38.62-2.6c-12.91-2.68-25.23-7.41-37.16-12.94c-11.6-5.37-22.86-11.43-34.38-16.95
		c0.12-0.36,0.24-0.72,0.36-1.09c12.57,6,24.87,12.62,37.58,18.33c11.98,5.39,24.38,9.79,37.34,12.14
		c12.94,2.33,26.14,2.84,39.22,1.52c25.1-2.51,50.63-11.69,69.92-28.13c3.62-3.09,6.97-6.48,10.01-10.13
		C424.45,109,424.66,109.38,424.87,109.75z"/>
	<path class="st3" d="M337.67,26.38c-0.03,0-0.06,0-0.09,0c-30.97,1.93-55.23,27.58-55.23,58.4c0,30.82,24.26,56.48,55.23,58.4
		c0.19,0.01,0.37-0.01,0.55-0.08c0.17-0.06,0.33-0.16,0.47-0.29c0.13-0.12,0.24-0.27,0.31-0.44c0.07-0.17,0.11-0.35,0.11-0.53V27.72
		c0-0.35-0.14-0.69-0.4-0.95C338.37,26.52,338.02,26.38,337.67,26.38L337.67,26.38z"/>
	<path class="st3" d="M385.02,123.79c-0.46,0-0.9-0.18-1.23-0.5l-40.05-39.74c-0.16-0.16-0.29-0.35-0.38-0.56
		c-0.09-0.21-0.13-0.43-0.13-0.66V27.72c0-0.23,0.05-0.47,0.14-0.68c0.09-0.22,0.23-0.41,0.4-0.57c0.17-0.16,0.38-0.29,0.6-0.37
		c0.22-0.08,0.46-0.11,0.7-0.1c31.17,1.94,55.59,27.76,55.59,58.78c0,14.09-5.09,27.72-14.35,38.4c-0.16,0.18-0.35,0.32-0.56,0.43
		c-0.21,0.1-0.45,0.16-0.69,0.17C385.06,123.79,385.04,123.79,385.02,123.79z"/>
	<path class="st4" d="M344.98,143.58c-0.44,0-0.87-0.17-1.19-0.47c-0.17-0.16-0.31-0.35-0.4-0.57c-0.09-0.21-0.14-0.45-0.14-0.68
		V92.58c0-0.34,0.1-0.67,0.29-0.95c0.19-0.28,0.46-0.5,0.78-0.63c0.32-0.13,0.66-0.16,1-0.1c0.33,0.07,0.64,0.23,0.88,0.47
		l34.94,34.68c0.17,0.17,0.3,0.36,0.38,0.58c0.09,0.22,0.13,0.45,0.12,0.68c-0.01,0.23-0.06,0.46-0.16,0.67
		c-0.1,0.21-0.24,0.4-0.41,0.56c-9.95,8.89-22.63,14.19-35.99,15.04C345.05,143.57,345.01,143.58,344.98,143.58z"/>
	<path class="st2" d="M437.45,144.67c-5.61,9.87-13.52,18.57-22.58,25.47c-20.14,15.33-45.65,23.64-70.82,25.38
		c-12.93,0.9-25.93,0.03-38.62-2.6c-12.91-2.68-25.23-7.41-37.16-12.94c-12.14-5.62-23.92-12-36.01-17.73
		c-12.08-5.73-24.49-10.61-37.5-13.8c0.95-0.17,1.88-0.35,2.77-0.56c0.85,0.22,1.7,0.45,2.54,0.68
		c25.43,7.06,47.88,20.96,71.76,31.7c11.98,5.39,24.38,9.79,37.34,12.14c12.94,2.33,26.14,2.84,39.22,1.53
		c25.1-2.51,50.63-11.7,69.92-28.14c7.64-6.48,14-14.3,18.77-23.08C437.22,143.37,437.34,144.02,437.45,144.67z"/>
	<path class="st2" d="M184.96,231.29c25.06,6.95,47.21,20.55,70.7,31.22c-0.24,0.34-0.48,0.67-0.73,1.01
		c-0.6-0.27-1.19-0.54-1.78-0.82c-12.15-5.62-23.92-12-36.01-17.73c-12.34-5.85-25.02-10.82-38.33-14.01
		c-18.4-4.4-37.4-5.74-56.24-3.97c-0.04-0.4-0.08-0.81-0.12-1.22C143.45,223.81,164.64,225.68,184.96,231.29z"/>
	<path class="st3" d="M285.67,270.42h-178.2c-0.12,0-0.24-0.05-0.33-0.14c-0.09-0.09-0.14-0.21-0.14-0.33
		c0-0.12,0.05-0.24,0.14-0.33s0.21-0.14,0.33-0.14h178.2c0.12,0,0.24,0.05,0.33,0.14c0.09,0.09,0.14,0.2,0.14,0.33
		c0,0.12-0.05,0.24-0.14,0.33C285.91,270.37,285.79,270.42,285.67,270.42z"/>
	<path class="st5" d="M179.55,207.81c6.34,0,11.49-5.1,11.49-11.4c0-6.3-5.14-11.4-11.49-11.4c-6.34,0-11.49,5.1-11.49,11.4
		C168.06,202.7,173.21,207.81,179.55,207.81z"/>
	<path class="st5" d="M222.54,276.85l0.27,5.68l-21.97,3.73l-0.4-8.39L222.54,276.85z"/>
	<path class="st6" d="M228.02,275.14l0.61,12.92l-0.23,0.01c-1.81,0.12-3.6-0.31-5.15-1.24c-1.4-0.89-2.21-2.11-2.27-3.46l0,0
		l-0.37-7.89L228.02,275.14z"/>
	<path class="st5" d="M221.92,286.2l5.74,0l2.73-21.95l-8.46,0L221.92,286.2z"/>
	<path class="st6" d="M220.46,284.34h11.29h0c0.94,0,1.88,0.18,2.75,0.54c0.87,0.36,1.67,0.88,2.33,1.55
		c0.67,0.66,1.2,1.45,1.56,2.32c0.36,0.87,0.55,1.8,0.55,2.73v0.23l-18.49,0V284.34z"/>
	<path class="st5" d="M167.79,280.88c0.63-0.38,1.17-0.89,1.57-1.49c0.41-0.61,0.68-1.29,0.79-2.01c0.11-0.72,0.06-1.46-0.14-2.16
		c-0.21-0.7-0.57-1.35-1.05-1.89l4.58-45.19l-10.9,0.76l-1.07,44.18c-0.87,0.87-1.39,2.03-1.46,3.25c-0.07,1.23,0.32,2.43,1.08,3.4
		c0.77,0.96,1.86,1.61,3.08,1.83C165.48,281.76,166.73,281.52,167.79,280.88L167.79,280.88z"/>
	<path class="st4" d="M173.48,235.97l-11.29-1.37c-0.32-0.04-0.63-0.15-0.91-0.31c-0.28-0.17-0.51-0.39-0.69-0.66
		c-0.18-0.27-0.3-0.57-0.35-0.89s-0.04-0.64,0.05-0.95l3.01-10.86c0.21-1.63,1.06-3.11,2.37-4.12c1.31-1.01,2.97-1.46,4.61-1.26
		c1.64,0.2,3.14,1.05,4.16,2.34s1.48,2.94,1.28,4.57L176,233.7c0.01,0.32-0.05,0.64-0.18,0.93c-0.13,0.3-0.32,0.56-0.56,0.78
		c-0.24,0.22-0.52,0.38-0.83,0.48C174.13,235.98,173.8,236.01,173.48,235.97z"/>
	<path class="st6" d="M171.9,287.28c-1.37-0.09-2.69-0.54-3.83-1.3c-1.14-0.76-2.05-1.81-2.65-3.03c-0.6-1.23-0.86-2.58-0.76-3.94
		c0.1-1.36,0.56-2.67,1.33-3.79l7.38-7.6l26.89-23.9l14.38-11.84c0.84-0.69,1.84-1.16,2.91-1.36c1.07-0.2,2.18-0.13,3.21,0.21
		c1.04,0.34,1.97,0.93,2.71,1.72c0.74,0.79,1.27,1.76,1.53,2.81l7.51,30.15c0.13,0.5,0.06,1.03-0.19,1.49s-0.65,0.8-1.15,0.98
		l-8.19,2.92c-0.27,0.1-0.57,0.14-0.86,0.12c-0.29-0.02-0.57-0.1-0.83-0.23c-0.26-0.13-0.49-0.32-0.67-0.55
		c-0.18-0.23-0.32-0.49-0.39-0.77l-3.12-11.59l-17.33,16.44l5.41,1.98c0.5,0.18,0.9,0.54,1.15,1.01c0.24,0.47,0.29,1.01,0.15,1.51
		l-1.75,6.15c-0.12,0.43-0.38,0.81-0.73,1.08c-0.35,0.27-0.79,0.43-1.23,0.44L171.9,287.28z"/>
	<path class="st4" d="M171.16,270.14l-0.71-25.79l-4.49-11.31c-0.92-2.31-1.31-4.79-1.16-7.26c0.15-2.48,0.84-4.89,2.03-7.07
		c1.19-2.18,2.84-4.08,4.85-5.56c2.01-1.48,4.31-2.51,6.76-3.01c0.37-0.08,0.74-0.15,1.1-0.22c2.35-0.46,4.77-0.43,7.1,0.09
		c2.34,0.52,4.53,1.52,6.46,2.94c1.92,1.41,3.52,3.21,4.7,5.28c1.18,2.07,1.91,4.36,2.14,6.72l2.11,19.41l-0.01,0.04
		c-3.36,14.84-13.09,23.01-30.62,25.71L171.16,270.14z"/>
	<path class="st5" d="M181.78,252.23c0.26-0.04,0.52-0.06,0.77-0.06l12.98-19.07l-2.46-5.03l7.17-4.68l5.22,8.49
		c0.42,0.69,0.61,1.49,0.53,2.29c-0.08,0.8-0.41,1.55-0.96,2.15l-17.77,19.36c0.28,0.95,0.26,1.96-0.05,2.9
		c-0.32,0.94-0.91,1.76-1.71,2.36c-0.8,0.6-1.76,0.93-2.75,0.98c-1,0.04-1.98-0.22-2.82-0.75c-0.84-0.53-1.5-1.3-1.89-2.21
		c-0.39-0.91-0.49-1.92-0.29-2.89c0.2-0.97,0.69-1.86,1.41-2.54S180.79,252.39,181.78,252.23z"/>
	<path class="st4" d="M194.4,232.75c-0.29-0.08-0.56-0.22-0.79-0.42s-0.42-0.43-0.55-0.71l-4.49-9.49
		c-0.86-1.28-1.17-2.84-0.86-4.35c0.3-1.51,1.2-2.83,2.48-3.68c1.29-0.85,2.86-1.17,4.38-0.87c1.52,0.3,2.85,1.18,3.72,2.45
		l7.09,7.81c0.2,0.22,0.35,0.49,0.44,0.77c0.09,0.29,0.12,0.59,0.08,0.89c-0.04,0.3-0.14,0.58-0.3,0.84
		c-0.16,0.26-0.37,0.47-0.62,0.64l-8.85,5.84c-0.25,0.17-0.54,0.28-0.84,0.32C194.99,232.85,194.69,232.83,194.4,232.75z"/>
	<path class="st3" d="M331.92,205.25H294c-0.55,0-1.07-0.22-1.46-0.6c-0.39-0.38-0.6-0.9-0.6-1.45c0-0.54,0.22-1.06,0.6-1.45
		c0.39-0.38,0.91-0.6,1.46-0.6h37.92c0.55,0,1.07,0.21,1.46,0.6c0.39,0.38,0.6,0.9,0.6,1.45c0,0.54-0.22,1.06-0.6,1.45
		C332.99,205.03,332.46,205.25,331.92,205.25z"/>
	<path class="st6" d="M282.67,207.29c-0.86,0-1.69-0.25-2.4-0.72c-0.71-0.47-1.27-1.14-1.59-1.93c-0.33-0.79-0.41-1.65-0.25-2.48
		c0.17-0.83,0.58-1.6,1.18-2.2c0.6-0.6,1.38-1.01,2.22-1.18c0.84-0.17,1.71-0.08,2.5,0.24c0.79,0.33,1.47,0.88,1.94,1.58
		c0.48,0.71,0.73,1.54,0.73,2.39c0,1.14-0.46,2.23-1.27,3.04C284.91,206.84,283.81,207.29,282.67,207.29z"/>
	<path class="st3" d="M331.92,217.52H294c-0.55,0-1.07-0.21-1.46-0.6c-0.39-0.38-0.6-0.9-0.6-1.45c0-0.54,0.22-1.06,0.6-1.45
		c0.39-0.38,0.91-0.6,1.46-0.6h37.92c0.55,0,1.07,0.21,1.46,0.6c0.39,0.38,0.6,0.9,0.6,1.45c0,0.54-0.22,1.06-0.6,1.45
		C332.99,217.3,332.46,217.52,331.92,217.52z"/>
	<path class="st6" d="M282.67,219.56c-0.86,0-1.69-0.25-2.4-0.72c-0.71-0.47-1.27-1.14-1.59-1.93c-0.33-0.78-0.41-1.65-0.25-2.48
		c0.17-0.83,0.58-1.6,1.18-2.2c0.6-0.6,1.38-1.01,2.22-1.18c0.84-0.17,1.71-0.08,2.5,0.24c0.79,0.32,1.47,0.88,1.94,1.58
		c0.48,0.71,0.73,1.54,0.73,2.39c0,1.14-0.46,2.23-1.27,3.03C284.91,219.11,283.81,219.56,282.67,219.56z"/>
	<path class="st3" d="M331.92,229.79H294c-0.55,0-1.07-0.21-1.46-0.6c-0.39-0.38-0.6-0.9-0.6-1.45c0-0.54,0.22-1.06,0.6-1.45
		c0.39-0.38,0.91-0.6,1.46-0.6h37.92c0.55,0,1.07,0.22,1.46,0.6c0.39,0.38,0.6,0.9,0.6,1.45c0,0.54-0.22,1.06-0.6,1.45
		C332.99,229.57,332.46,229.79,331.92,229.79z"/>
	<path class="st6" d="M282.67,231.83c-0.86,0-1.69-0.25-2.4-0.72c-0.71-0.47-1.27-1.14-1.59-1.93c-0.33-0.79-0.41-1.65-0.25-2.48
		c0.17-0.83,0.58-1.6,1.18-2.2c0.6-0.6,1.38-1.01,2.22-1.18c0.84-0.17,1.71-0.08,2.5,0.24c0.79,0.32,1.47,0.88,1.94,1.58
		c0.48,0.71,0.73,1.54,0.73,2.39c0,1.14-0.46,2.23-1.27,3.04C284.91,231.38,283.81,231.83,282.67,231.83z"/>
	<path class="st6" d="M342.81,215.42h15.66c0.11,0,0.21-0.04,0.29-0.12c0.08-0.08,0.12-0.18,0.12-0.29v-96.08
		c0-0.11-0.04-0.21-0.12-0.29c-0.08-0.08-0.18-0.12-0.29-0.12c-0.11,0-0.21,0.04-0.29,0.12c-0.08,0.08-0.12,0.18-0.12,0.29v95.67
		h-15.25c-0.05,0-0.11,0.01-0.16,0.03c-0.05,0.02-0.1,0.05-0.13,0.09c-0.04,0.04-0.07,0.08-0.09,0.13c-0.02,0.05-0.03,0.1-0.03,0.16
		s0.01,0.11,0.03,0.16c0.02,0.05,0.05,0.09,0.09,0.13c0.04,0.04,0.08,0.07,0.13,0.09C342.7,215.41,342.76,215.42,342.81,215.42z"/>
	<path class="st3" d="M409.92,56.13c-1.05,0.08-2.1-0.14-3.01-0.65c-0.92-0.51-1.66-1.27-2.14-2.2c-0.48-0.93-0.67-1.98-0.55-3.01
		c0.12-1.04,0.55-2.01,1.23-2.81c0.68-0.79,1.58-1.37,2.59-1.65c1.01-0.28,2.08-0.27,3.08,0.05c1,0.32,1.88,0.93,2.53,1.75
		c0.65,0.82,1.04,1.81,1.13,2.85c0.11,1.39-0.34,2.77-1.25,3.84C412.63,55.35,411.33,56.01,409.92,56.13z M409.86,55.32
		c0.89-0.07,1.73-0.4,2.43-0.95c0.7-0.55,1.21-1.29,1.49-2.13c0.27-0.84,0.29-1.74,0.05-2.59c-0.24-0.85-0.73-1.61-1.41-2.18
		s-1.51-0.93-2.39-1.03c-0.88-0.1-1.78,0.06-2.57,0.46c-0.79,0.4-1.45,1.03-1.88,1.8c-0.43,0.77-0.63,1.65-0.55,2.53
		c0.05,0.58,0.21,1.15,0.48,1.67c0.27,0.52,0.64,0.99,1.09,1.36c0.45,0.38,0.97,0.67,1.53,0.85
		C408.68,55.3,409.27,55.36,409.86,55.32L409.86,55.32z"/>
	<path class="st3" d="M428.21,42.6c1.8,0,3.27-1.45,3.27-3.24c0-1.79-1.46-3.24-3.27-3.24c-1.81,0-3.27,1.45-3.27,3.24
		C424.95,41.15,426.41,42.6,428.21,42.6z"/>
	<path class="st3" d="M444.28,30.87c0.95,0,1.72-0.76,1.72-1.7c0-0.94-0.77-1.7-1.72-1.7c-0.95,0-1.72,0.76-1.72,1.7
		C442.57,30.1,443.33,30.87,444.28,30.87z"/>
	<path class="st3" d="M384.96,159.89c-0.58,0.87-1.41,1.55-2.37,1.95c-0.97,0.4-2.04,0.51-3.07,0.32c-1.03-0.2-1.98-0.7-2.73-1.43
		c-0.75-0.73-1.26-1.67-1.47-2.69c-0.21-1.02-0.11-2.08,0.29-3.05c0.4-0.97,1.07-1.79,1.95-2.38c0.87-0.58,1.9-0.9,2.95-0.9
		c1.05-0.01,2.08,0.3,2.96,0.87c1.17,0.77,1.99,1.97,2.27,3.34C386.01,157.3,385.74,158.72,384.96,159.89z M376.78,154.52
		c-0.49,0.74-0.75,1.6-0.74,2.48c0,0.88,0.27,1.74,0.77,2.47c0.5,0.73,1.2,1.3,2.03,1.63c0.82,0.33,1.73,0.42,2.6,0.24
		c0.87-0.18,1.67-0.61,2.3-1.23c0.63-0.63,1.05-1.42,1.22-2.29s0.08-1.76-0.27-2.58c-0.35-0.81-0.93-1.51-1.67-1.99
		c-0.99-0.65-2.21-0.88-3.38-0.65C378.46,152.85,377.44,153.54,376.78,154.52z"/>
	<path class="st3" d="M391.33,179.28c1.81,0,3.27-1.45,3.27-3.24c0-1.79-1.46-3.24-3.27-3.24c-1.81,0-3.27,1.45-3.27,3.24
		C388.06,177.82,389.52,179.28,391.33,179.28z"/>
	<path class="st3" d="M400.44,194.36c0.95,0,1.72-0.76,1.72-1.7c0-0.94-0.77-1.71-1.72-1.71c-0.95,0-1.72,0.76-1.72,1.71
		C398.73,193.6,399.5,194.36,400.44,194.36z"/>
	<path class="st3" d="M253.06,71.35c-0.47-0.93-0.65-1.98-0.51-3.02c0.13-1.03,0.57-2.01,1.26-2.79c0.69-0.79,1.6-1.35,2.61-1.62
		c1.01-0.27,2.09-0.24,3.08,0.09c1,0.33,1.87,0.95,2.51,1.78c0.64,0.83,1.02,1.82,1.1,2.86c0.07,1.04-0.17,2.08-0.69,2.98
		c-0.52,0.9-1.3,1.63-2.24,2.1c-1.26,0.62-2.72,0.72-4.06,0.27C254.79,73.55,253.69,72.6,253.06,71.35z M261.84,67.02
		c-0.39-0.79-1.02-1.45-1.79-1.88c-0.77-0.44-1.66-0.64-2.54-0.58c-0.89,0.06-1.74,0.38-2.44,0.92c-0.7,0.54-1.23,1.27-1.51,2.11
		c-0.28,0.84-0.31,1.74-0.08,2.59c0.23,0.85,0.71,1.62,1.38,2.19c0.67,0.58,1.5,0.95,2.38,1.06c0.88,0.11,1.78-0.04,2.57-0.43
		c1.07-0.53,1.88-1.45,2.26-2.57C262.45,69.3,262.37,68.08,261.84,67.02z"/>
	<path class="st3" d="M235.79,71.96c1.81,0,3.27-1.45,3.27-3.24c0-1.79-1.46-3.24-3.27-3.24c-1.8,0-3.27,1.45-3.27,3.24
		C232.52,70.5,233.99,71.96,235.79,71.96z"/>
	<path class="st3" d="M216.73,69.9c0.95,0,1.72-0.76,1.72-1.7c0-0.94-0.77-1.7-1.72-1.7c-0.95,0-1.72,0.76-1.72,1.7
		C215.01,69.14,215.78,69.9,216.73,69.9z"/>
	<path class="st6" d="M191.69,197.4l-0.48-1.21c-1.32-3.34-4.48-5.91-7.86-6.39c-1.69-0.22-3.4,0.04-4.94,0.75
		c-1.54,0.71-2.85,1.84-3.77,3.26c-0.78,1.35-1.4,2.78-1.84,4.27c-0.15,0.44-0.3,0.76-0.59,0.86c-0.33,0.12-0.66-0.08-1.2-0.42
		c-0.12-0.07-0.26-0.11-0.4-0.11c-0.14,0-0.28,0.04-0.4,0.12c-0.12,0.08-0.21,0.19-0.27,0.31c-0.06,0.13-0.08,0.27-0.06,0.41
		l0.57,4.02l-0.48-0.42c-3.09-2.73-3.73-7.87-1.49-11.13l-5.08,1.04l0.23-0.43c2.11-4.05,5.75-7.1,10.12-8.48l-4.87-1.07l0.49-0.3
		c4.36-2.67,10.12-2.59,14.66,0.19c2.28,1.45,4.17,3.43,5.5,5.77c1.33,2.34,2.07,4.97,2.15,7.66L191.69,197.4z"/>
	<path class="st0" d="M5,0h576c2.76,0,5,2.24,5,5v340c0,2.76-2.24,5-5,5H5c-2.76,0-5-2.24-5-5V5C0,2.24,2.24,0,5,0z"/>
	<path class="st1" d="M431.02,192.76c-0.37,0.71-0.76,1.41-1.16,2.1c-15.36,26.55-51.08,43.04-111.32,34.31
		c-34.21-5.19-48.77,13.85-62.88,33.35c-0.24,0.34-0.48,0.67-0.73,1.01c-14.77,20.45-29.4,40.96-65.96,34.14
		c-38.77-6.08-62.69-37.32-66.4-70.67c-0.04-0.41-0.08-0.81-0.12-1.22c-2.08-21.62,4.35-44.01,20.75-60.91
		c9.9-10.21,23.98-15.63,38.5-15.46c4.37,0.08,8.75-0.24,13.06-0.96c0.95-0.17,1.88-0.35,2.77-0.56
		c18.51-4.2,27.04-16.68,32.27-31.9c0.12-0.36,0.24-0.72,0.36-1.09c12.01-36.31,6.46-87.28,71.75-79.78
		c58.42,4.27,101.3,36.42,122.33,73.52c0.21,0.37,0.42,0.75,0.62,1.12c5.78,10.29,9.91,21.42,12.23,32.97
		c0.13,0.65,0.25,1.3,0.36,1.95C440.43,161.9,438.48,178.64,431.02,192.76z"/>
	<path class="st2" d="M424.87,109.75c-4.19,4.94-8.92,9.42-14.08,13.35c-20.14,15.33-45.65,23.64-70.82,25.39
		c-12.93,0.9-25.93,0.03-38.62-2.6c-12.91-2.68-25.23-7.41-37.16-12.94c-11.6-5.37-22.86-11.43-34.38-16.95
		c0.12-0.36,0.24-0.72,0.36-1.09c12.57,6,24.87,12.62,37.58,18.33c11.98,5.39,24.38,9.79,37.34,12.14
		c12.94,2.33,26.14,2.84,39.22,1.52c25.1-2.51,50.63-11.69,69.92-28.13c3.62-3.09,6.97-6.48,10.01-10.13
		C424.45,109,424.66,109.38,424.87,109.75z"/>
	<path class="st3" d="M337.67,26.38c-0.03,0-0.06,0-0.09,0c-30.97,1.93-55.23,27.58-55.23,58.4c0,30.82,24.26,56.48,55.23,58.4
		c0.19,0.01,0.37-0.01,0.55-0.08c0.17-0.06,0.33-0.16,0.47-0.29c0.13-0.12,0.24-0.27,0.31-0.44c0.07-0.17,0.11-0.35,0.11-0.53V27.72
		c0-0.35-0.14-0.69-0.4-0.95C338.37,26.52,338.02,26.38,337.67,26.38L337.67,26.38z"/>
	<path class="st3" d="M385.02,123.79c-0.46,0-0.9-0.18-1.23-0.5l-40.05-39.74c-0.16-0.16-0.29-0.35-0.38-0.56
		c-0.09-0.21-0.13-0.43-0.13-0.66V27.72c0-0.23,0.05-0.47,0.14-0.68c0.09-0.22,0.23-0.41,0.4-0.57c0.17-0.16,0.38-0.29,0.6-0.37
		c0.22-0.08,0.46-0.11,0.7-0.1c31.17,1.94,55.59,27.76,55.59,58.78c0,14.09-5.09,27.72-14.35,38.4c-0.16,0.18-0.35,0.32-0.56,0.43
		c-0.21,0.1-0.45,0.16-0.69,0.17C385.06,123.79,385.04,123.79,385.02,123.79z"/>
	<path class="st4" d="M344.98,143.58c-0.44,0-0.87-0.17-1.19-0.47c-0.17-0.16-0.31-0.35-0.4-0.57c-0.09-0.21-0.14-0.45-0.14-0.68
		V92.58c0-0.34,0.1-0.67,0.29-0.95c0.19-0.28,0.46-0.5,0.78-0.63c0.32-0.13,0.66-0.16,1-0.1c0.33,0.07,0.64,0.23,0.88,0.47
		l34.94,34.68c0.17,0.17,0.3,0.36,0.38,0.58c0.09,0.22,0.13,0.45,0.12,0.68c-0.01,0.23-0.06,0.46-0.16,0.67
		c-0.1,0.21-0.24,0.4-0.41,0.56c-9.95,8.89-22.63,14.19-35.99,15.04C345.05,143.57,345.01,143.58,344.98,143.58z"/>
	<path class="st2" d="M437.45,144.67c-5.61,9.87-13.52,18.57-22.58,25.47c-20.14,15.33-45.65,23.64-70.82,25.38
		c-12.93,0.9-25.93,0.03-38.62-2.6c-12.91-2.68-25.23-7.41-37.16-12.94c-12.14-5.62-23.92-12-36.01-17.73
		c-12.08-5.73-24.49-10.61-37.5-13.8c0.95-0.17,1.88-0.35,2.77-0.56c0.85,0.22,1.7,0.45,2.54,0.68
		c25.43,7.06,47.88,20.96,71.76,31.7c11.98,5.39,24.38,9.79,37.34,12.14c12.94,2.33,26.14,2.84,39.22,1.53
		c25.1-2.51,50.63-11.7,69.92-28.14c7.64-6.48,14-14.3,18.77-23.08C437.22,143.37,437.34,144.02,437.45,144.67z"/>
	<path class="st2" d="M184.96,231.29c25.06,6.95,47.21,20.55,70.7,31.22c-0.24,0.34-0.48,0.67-0.73,1.01
		c-0.6-0.27-1.19-0.54-1.78-0.82c-12.15-5.62-23.92-12-36.01-17.73c-12.34-5.85-25.02-10.82-38.33-14.01
		c-18.4-4.4-37.4-5.74-56.24-3.97c-0.04-0.4-0.08-0.81-0.12-1.22C143.45,223.81,164.64,225.68,184.96,231.29z"/>
	<path class="st3" d="M285.67,270.42h-178.2c-0.12,0-0.24-0.05-0.33-0.14c-0.09-0.09-0.14-0.21-0.14-0.33
		c0-0.12,0.05-0.24,0.14-0.33s0.21-0.14,0.33-0.14h178.2c0.12,0,0.24,0.05,0.33,0.14c0.09,0.09,0.14,0.2,0.14,0.33
		c0,0.12-0.05,0.24-0.14,0.33C285.91,270.37,285.79,270.42,285.67,270.42z"/>
	<path class="st5" d="M179.55,207.81c6.34,0,11.49-5.1,11.49-11.4c0-6.3-5.14-11.4-11.49-11.4c-6.34,0-11.49,5.1-11.49,11.4
		C168.06,202.7,173.21,207.81,179.55,207.81z"/>
	<path class="st5" d="M222.54,276.85l0.27,5.68l-21.97,3.73l-0.4-8.39L222.54,276.85z"/>
	<path class="st6" d="M228.02,275.14l0.61,12.92l-0.23,0.01c-1.81,0.12-3.6-0.31-5.15-1.24c-1.4-0.89-2.21-2.11-2.27-3.46l0,0
		l-0.37-7.89L228.02,275.14z"/>
	<path class="st5" d="M221.92,286.2l5.74,0l2.73-21.95l-8.46,0L221.92,286.2z"/>
	<path class="st6" d="M220.46,284.34h11.29h0c0.94,0,1.88,0.18,2.75,0.54c0.87,0.36,1.67,0.88,2.33,1.55
		c0.67,0.66,1.2,1.45,1.56,2.32c0.36,0.87,0.55,1.8,0.55,2.73v0.23l-18.49,0V284.34z"/>
	<path class="st5" d="M167.79,280.88c0.63-0.38,1.17-0.89,1.57-1.49c0.41-0.61,0.68-1.29,0.79-2.01c0.11-0.72,0.06-1.46-0.14-2.16
		c-0.21-0.7-0.57-1.35-1.05-1.89l4.58-45.19l-10.9,0.76l-1.07,44.18c-0.87,0.87-1.39,2.03-1.46,3.25c-0.07,1.23,0.32,2.43,1.08,3.4
		c0.77,0.96,1.86,1.61,3.08,1.83C165.48,281.76,166.73,281.52,167.79,280.88L167.79,280.88z"/>
	<path class="st4" d="M173.48,235.97l-11.29-1.37c-0.32-0.04-0.63-0.15-0.91-0.31c-0.28-0.17-0.51-0.39-0.69-0.66
		c-0.18-0.27-0.3-0.57-0.35-0.89s-0.04-0.64,0.05-0.95l3.01-10.86c0.21-1.63,1.06-3.11,2.37-4.12c1.31-1.01,2.97-1.46,4.61-1.26
		c1.64,0.2,3.14,1.05,4.16,2.34s1.48,2.94,1.28,4.57L176,233.7c0.01,0.32-0.05,0.64-0.18,0.93c-0.13,0.3-0.32,0.56-0.56,0.78
		c-0.24,0.22-0.52,0.38-0.83,0.48C174.13,235.98,173.8,236.01,173.48,235.97z"/>
	<path class="st6" d="M171.9,287.28c-1.37-0.09-2.69-0.54-3.83-1.3c-1.14-0.76-2.05-1.81-2.65-3.03c-0.6-1.23-0.86-2.58-0.76-3.94
		c0.1-1.36,0.56-2.67,1.33-3.79l7.38-7.6l26.89-23.9l14.38-11.84c0.84-0.69,1.84-1.16,2.91-1.36c1.07-0.2,2.18-0.13,3.21,0.21
		c1.04,0.34,1.97,0.93,2.71,1.72c0.74,0.79,1.27,1.76,1.53,2.81l7.51,30.15c0.13,0.5,0.06,1.03-0.19,1.49s-0.65,0.8-1.15,0.98
		l-8.19,2.92c-0.27,0.1-0.57,0.14-0.86,0.12c-0.29-0.02-0.57-0.1-0.83-0.23c-0.26-0.13-0.49-0.32-0.67-0.55
		c-0.18-0.23-0.32-0.49-0.39-0.77l-3.12-11.59l-17.33,16.44l5.41,1.98c0.5,0.18,0.9,0.54,1.15,1.01c0.24,0.47,0.29,1.01,0.15,1.51
		l-1.75,6.15c-0.12,0.43-0.38,0.81-0.73,1.08c-0.35,0.27-0.79,0.43-1.23,0.44L171.9,287.28z"/>
	<path class="st4" d="M171.16,270.14l-0.71-25.79l-4.49-11.31c-0.92-2.31-1.31-4.79-1.16-7.26c0.15-2.48,0.84-4.89,2.03-7.07
		c1.19-2.18,2.84-4.08,4.85-5.56c2.01-1.48,4.31-2.51,6.76-3.01c0.37-0.08,0.74-0.15,1.1-0.22c2.35-0.46,4.77-0.43,7.1,0.09
		c2.34,0.52,4.53,1.52,6.46,2.94c1.92,1.41,3.52,3.21,4.7,5.28c1.18,2.07,1.91,4.36,2.14,6.72l2.11,19.41l-0.01,0.04
		c-3.36,14.84-13.09,23.01-30.62,25.71L171.16,270.14z"/>
	<path class="st5" d="M181.78,252.23c0.26-0.04,0.52-0.06,0.77-0.06l12.98-19.07l-2.46-5.03l7.17-4.68l5.22,8.49
		c0.42,0.69,0.61,1.49,0.53,2.29c-0.08,0.8-0.41,1.55-0.96,2.15l-17.77,19.36c0.28,0.95,0.26,1.96-0.05,2.9
		c-0.32,0.94-0.91,1.76-1.71,2.36c-0.8,0.6-1.76,0.93-2.75,0.98c-1,0.04-1.98-0.22-2.82-0.75c-0.84-0.53-1.5-1.3-1.89-2.21
		c-0.39-0.91-0.49-1.92-0.29-2.89c0.2-0.97,0.69-1.86,1.41-2.54S180.79,252.39,181.78,252.23z"/>
	<path class="st4" d="M194.4,232.75c-0.29-0.08-0.56-0.22-0.79-0.42s-0.42-0.43-0.55-0.71l-4.49-9.49
		c-0.86-1.28-1.17-2.84-0.86-4.35c0.3-1.51,1.2-2.83,2.48-3.68c1.29-0.85,2.86-1.17,4.38-0.87c1.52,0.3,2.85,1.18,3.72,2.45
		l7.09,7.81c0.2,0.22,0.35,0.49,0.44,0.77c0.09,0.29,0.12,0.59,0.08,0.89c-0.04,0.3-0.14,0.58-0.3,0.84
		c-0.16,0.26-0.37,0.47-0.62,0.64l-8.85,5.84c-0.25,0.17-0.54,0.28-0.84,0.32C194.99,232.85,194.69,232.83,194.4,232.75z"/>
	<path class="st3" d="M331.92,205.25H294c-0.55,0-1.07-0.22-1.46-0.6c-0.39-0.38-0.6-0.9-0.6-1.45c0-0.54,0.22-1.06,0.6-1.45
		c0.39-0.38,0.91-0.6,1.46-0.6h37.92c0.55,0,1.07,0.21,1.46,0.6c0.39,0.38,0.6,0.9,0.6,1.45c0,0.54-0.22,1.06-0.6,1.45
		C332.99,205.03,332.46,205.25,331.92,205.25z"/>
	<path class="st6" d="M282.67,207.29c-0.86,0-1.69-0.25-2.4-0.72c-0.71-0.47-1.27-1.14-1.59-1.93c-0.33-0.79-0.41-1.65-0.25-2.48
		c0.17-0.83,0.58-1.6,1.18-2.2c0.6-0.6,1.38-1.01,2.22-1.18c0.84-0.17,1.71-0.08,2.5,0.24c0.79,0.33,1.47,0.88,1.94,1.58
		c0.48,0.71,0.73,1.54,0.73,2.39c0,1.14-0.46,2.23-1.27,3.04C284.91,206.84,283.81,207.29,282.67,207.29z"/>
	<path class="st3" d="M331.92,217.52H294c-0.55,0-1.07-0.21-1.46-0.6c-0.39-0.38-0.6-0.9-0.6-1.45c0-0.54,0.22-1.06,0.6-1.45
		c0.39-0.38,0.91-0.6,1.46-0.6h37.92c0.55,0,1.07,0.21,1.46,0.6c0.39,0.38,0.6,0.9,0.6,1.45c0,0.54-0.22,1.06-0.6,1.45
		C332.99,217.3,332.46,217.52,331.92,217.52z"/>
	<path class="st6" d="M282.67,219.56c-0.86,0-1.69-0.25-2.4-0.72c-0.71-0.47-1.27-1.14-1.59-1.93c-0.33-0.78-0.41-1.65-0.25-2.48
		c0.17-0.83,0.58-1.6,1.18-2.2c0.6-0.6,1.38-1.01,2.22-1.18c0.84-0.17,1.71-0.08,2.5,0.24c0.79,0.32,1.47,0.88,1.94,1.58
		c0.48,0.71,0.73,1.54,0.73,2.39c0,1.14-0.46,2.23-1.27,3.03C284.91,219.11,283.81,219.56,282.67,219.56z"/>
	<path class="st3" d="M331.92,229.79H294c-0.55,0-1.07-0.21-1.46-0.6c-0.39-0.38-0.6-0.9-0.6-1.45c0-0.54,0.22-1.06,0.6-1.45
		c0.39-0.38,0.91-0.6,1.46-0.6h37.92c0.55,0,1.07,0.22,1.46,0.6c0.39,0.38,0.6,0.9,0.6,1.45c0,0.54-0.22,1.06-0.6,1.45
		C332.99,229.57,332.46,229.79,331.92,229.79z"/>
	<path class="st6" d="M282.67,231.83c-0.86,0-1.69-0.25-2.4-0.72c-0.71-0.47-1.27-1.14-1.59-1.93c-0.33-0.79-0.41-1.65-0.25-2.48
		c0.17-0.83,0.58-1.6,1.18-2.2c0.6-0.6,1.38-1.01,2.22-1.18c0.84-0.17,1.71-0.08,2.5,0.24c0.79,0.32,1.47,0.88,1.94,1.58
		c0.48,0.71,0.73,1.54,0.73,2.39c0,1.14-0.46,2.23-1.27,3.04C284.91,231.38,283.81,231.83,282.67,231.83z"/>
	<path class="st6" d="M342.81,215.42h15.66c0.11,0,0.21-0.04,0.29-0.12c0.08-0.08,0.12-0.18,0.12-0.29v-96.08
		c0-0.11-0.04-0.21-0.12-0.29c-0.08-0.08-0.18-0.12-0.29-0.12c-0.11,0-0.21,0.04-0.29,0.12c-0.08,0.08-0.12,0.18-0.12,0.29v95.67
		h-15.25c-0.05,0-0.11,0.01-0.16,0.03c-0.05,0.02-0.1,0.05-0.13,0.09c-0.04,0.04-0.07,0.08-0.09,0.13c-0.02,0.05-0.03,0.1-0.03,0.16
		s0.01,0.11,0.03,0.16c0.02,0.05,0.05,0.09,0.09,0.13c0.04,0.04,0.08,0.07,0.13,0.09C342.7,215.41,342.76,215.42,342.81,215.42z"/>
	<path class="st3" d="M409.92,56.13c-1.05,0.08-2.1-0.14-3.01-0.65c-0.92-0.51-1.66-1.27-2.14-2.2c-0.48-0.93-0.67-1.98-0.55-3.01
		c0.12-1.04,0.55-2.01,1.23-2.81c0.68-0.79,1.58-1.37,2.59-1.65c1.01-0.28,2.08-0.27,3.08,0.05c1,0.32,1.88,0.93,2.53,1.75
		c0.65,0.82,1.04,1.81,1.13,2.85c0.11,1.39-0.34,2.77-1.25,3.84C412.63,55.35,411.33,56.01,409.92,56.13z M409.86,55.32
		c0.89-0.07,1.73-0.4,2.43-0.95c0.7-0.55,1.21-1.29,1.49-2.13c0.27-0.84,0.29-1.74,0.05-2.59c-0.24-0.85-0.73-1.61-1.41-2.18
		s-1.51-0.93-2.39-1.03c-0.88-0.1-1.78,0.06-2.57,0.46c-0.79,0.4-1.45,1.03-1.88,1.8c-0.43,0.77-0.63,1.65-0.55,2.53
		c0.05,0.58,0.21,1.15,0.48,1.67c0.27,0.52,0.64,0.99,1.09,1.36c0.45,0.38,0.97,0.67,1.53,0.85
		C408.68,55.3,409.27,55.36,409.86,55.32L409.86,55.32z"/>
	<path class="st3" d="M428.21,42.6c1.8,0,3.27-1.45,3.27-3.24c0-1.79-1.46-3.24-3.27-3.24c-1.81,0-3.27,1.45-3.27,3.24
		C424.95,41.15,426.41,42.6,428.21,42.6z"/>
	<path class="st3" d="M444.28,30.87c0.95,0,1.72-0.76,1.72-1.7c0-0.94-0.77-1.7-1.72-1.7c-0.95,0-1.72,0.76-1.72,1.7
		C442.57,30.1,443.33,30.87,444.28,30.87z"/>
	<path class="st3" d="M384.96,159.89c-0.58,0.87-1.41,1.55-2.37,1.95c-0.97,0.4-2.04,0.51-3.07,0.32c-1.03-0.2-1.98-0.7-2.73-1.43
		c-0.75-0.73-1.26-1.67-1.47-2.69c-0.21-1.02-0.11-2.08,0.29-3.05c0.4-0.97,1.07-1.79,1.95-2.38c0.87-0.58,1.9-0.9,2.95-0.9
		c1.05-0.01,2.08,0.3,2.96,0.87c1.17,0.77,1.99,1.97,2.27,3.34C386.01,157.3,385.74,158.72,384.96,159.89z M376.78,154.52
		c-0.49,0.74-0.75,1.6-0.74,2.48c0,0.88,0.27,1.74,0.77,2.47c0.5,0.73,1.2,1.3,2.03,1.63c0.82,0.33,1.73,0.42,2.6,0.24
		c0.87-0.18,1.67-0.61,2.3-1.23c0.63-0.63,1.05-1.42,1.22-2.29s0.08-1.76-0.27-2.58c-0.35-0.81-0.93-1.51-1.67-1.99
		c-0.99-0.65-2.21-0.88-3.38-0.65C378.46,152.85,377.44,153.54,376.78,154.52z"/>
	<path class="st3" d="M391.33,179.28c1.81,0,3.27-1.45,3.27-3.24c0-1.79-1.46-3.24-3.27-3.24c-1.81,0-3.27,1.45-3.27,3.24
		C388.06,177.82,389.52,179.28,391.33,179.28z"/>
	<path class="st3" d="M400.44,194.36c0.95,0,1.72-0.76,1.72-1.7c0-0.94-0.77-1.71-1.72-1.71c-0.95,0-1.72,0.76-1.72,1.71
		C398.73,193.6,399.5,194.36,400.44,194.36z"/>
	<path class="st3" d="M253.06,71.35c-0.47-0.93-0.65-1.98-0.51-3.02c0.13-1.03,0.57-2.01,1.26-2.79c0.69-0.79,1.6-1.35,2.61-1.62
		c1.01-0.27,2.09-0.24,3.08,0.09c1,0.33,1.87,0.95,2.51,1.78c0.64,0.83,1.02,1.82,1.1,2.86c0.07,1.04-0.17,2.08-0.69,2.98
		c-0.52,0.9-1.3,1.63-2.24,2.1c-1.26,0.62-2.72,0.72-4.06,0.27C254.79,73.55,253.69,72.6,253.06,71.35z M261.84,67.02
		c-0.39-0.79-1.02-1.45-1.79-1.88c-0.77-0.44-1.66-0.64-2.54-0.58c-0.89,0.06-1.74,0.38-2.44,0.92c-0.7,0.54-1.23,1.27-1.51,2.11
		c-0.28,0.84-0.31,1.74-0.08,2.59c0.23,0.85,0.71,1.62,1.38,2.19c0.67,0.58,1.5,0.95,2.38,1.06c0.88,0.11,1.78-0.04,2.57-0.43
		c1.07-0.53,1.88-1.45,2.26-2.57C262.45,69.3,262.37,68.08,261.84,67.02z"/>
	<path class="st3" d="M235.79,71.96c1.81,0,3.27-1.45,3.27-3.24c0-1.79-1.46-3.24-3.27-3.24c-1.8,0-3.27,1.45-3.27,3.24
		C232.52,70.5,233.99,71.96,235.79,71.96z"/>
	<path class="st3" d="M216.73,69.9c0.95,0,1.72-0.76,1.72-1.7c0-0.94-0.77-1.7-1.72-1.7c-0.95,0-1.72,0.76-1.72,1.7
		C215.01,69.14,215.78,69.9,216.73,69.9z"/>
	<path class="st6" d="M191.69,197.4l-0.48-1.21c-1.32-3.34-4.48-5.91-7.86-6.39c-1.69-0.22-3.4,0.04-4.94,0.75
		c-1.54,0.71-2.85,1.84-3.77,3.26c-0.78,1.35-1.4,2.78-1.84,4.27c-0.15,0.44-0.3,0.76-0.59,0.86c-0.33,0.12-0.66-0.08-1.2-0.42
		c-0.12-0.07-0.26-0.11-0.4-0.11c-0.14,0-0.28,0.04-0.4,0.12c-0.12,0.08-0.21,0.19-0.27,0.31c-0.06,0.13-0.08,0.27-0.06,0.41
		l0.57,4.02l-0.48-0.42c-3.09-2.73-3.73-7.87-1.49-11.13l-5.08,1.04l0.23-0.43c2.11-4.05,5.75-7.1,10.12-8.48l-4.87-1.07l0.49-0.3
		c4.36-2.67,10.12-2.59,14.66,0.19c2.28,1.45,4.17,3.43,5.5,5.77c1.33,2.34,2.07,4.97,2.15,7.66L191.69,197.4z"/>
</g>
</svg>
